<svg xmlns="http://www.w3.org/2000/svg" version="1.1" xmlns:xlink="http://www.w3.org/1999/xlink" xmlns:svgjs="http://svgjs.com/svgjs" width="4096" height="2160" preserveAspectRatio="none" viewBox="0 0 4096 2160"><g mask="url(&quot;#SvgjsMask3233&quot;)" fill="none"><rect width="4096" height="2160" x="0" y="0" fill="url(#SvgjsLinearGradient3234)"></rect><path d="M4096 0L2723.81 0L4096 450.1z" fill="rgba(255, 255, 255, .1)"></path><path d="M2723.81 0L4096 450.1L4096 1052.5900000000001L2587.39 0z" fill="rgba(255, 255, 255, .075)"></path><path d="M2587.39 0L4096 1052.5900000000001L4096 1340.4500000000003L1968.8999999999999 0z" fill="rgba(255, 255, 255, .05)"></path><path d="M1968.8999999999996 0L4096 1340.4500000000003L4096 1923.5800000000004L1049.2499999999995 0z" fill="rgba(255, 255, 255, .025)"></path><path d="M0 2160L1816.9 2160L0 1724.67z" fill="rgba(0, 0, 0, .1)"></path><path d="M0 1724.67L1816.9 2160L2662.28 2160L0 779.32z" fill="rgba(0, 0, 0, .075)"></path><path d="M0 779.3199999999999L2662.28 2160L2664.0800000000004 2160L0 700.91z" fill="rgba(0, 0, 0, .05)"></path><path d="M0 700.9099999999999L2664.0800000000004 2160L3664.5700000000006 2160L0 401.65999999999985z" fill="rgba(0, 0, 0, .025)"></path></g><defs><mask id="SvgjsMask3233"><rect width="4096" height="2160" fill="#ffffff"></rect></mask><linearGradient x1="11.82%" y1="-22.41%" x2="88.18%" y2="122.41%" gradientUnits="userSpaceOnUse" id="SvgjsLinearGradient3234"><stop stop-color="#0e2a47" offset="0"></stop><stop stop-color="rgba(44, 186, 158, 1)" offset="1"></stop></linearGradient></defs></svg>